<svg id="mx-icon" data-name="MX Icon" xmlns="http://www.w3.org/2000/svg" viewBox="0 0 400 400"><defs><style>.cls-1{fill:#fff}</style></defs><path class="cls-1" d="M170.79 344.77c-5.83-1.15-9.47 2.21-10.61 5.86l-4-1.31c1.63-6.16 7.71-9.71 15.25-8.23s13.19 7.88 11 19.14-10 15.06-17.41 13.6-11.82-7.08-11-13.4l4.17.3c-.33 3.8 1.76 8.29 7.6 9.44 4.92 1 10.42-1.76 12.2-10.76s-2.27-13.67-7.2-14.64zM147.45 352.48c-4.66 10.33-13 12.46-20.19 9.24s-11.11-10.92-6.45-21.25 13-12.41 20.17-9.18 11.13 10.86 6.47 21.19zm-22.53-10.15c-3.46 7.66-1.59 13.51 3.88 16s11.08 0 14.54-7.67 1.57-13.46-3.9-15.93-11.06-.07-14.52 7.6zM122.42 322.32l-18.94 26-16.65-12.17 2.18-3 13.17 9.61 6-8.28-11.43-8.34 2.14-2.94 11.43 8.33 8.58-11.76zM101.54 306.21l-23.32 22.15L64 313.41l2.68-2.55 11.23 11.83 7.44-7.06-9.75-10.27 2.64-2.5L88 313.12l10.57-10zM83.9 286.69l-27 17.4L45.26 286l3.1-2 9.3 14.44 8.61-5.56-7.88-12.23 3.06-2L69.33 291l9.18-6-9.46-14.69 3.06-2zM69.45 262.92l-29.87 11.9-7.95-19.95 3.43-1.37 6.36 16 9.52-3.8-5.39-13.53 3.38-1.34 5.4 13.52 10.14-4L58 244l3.38-1.34zM47.22 225.77l-5.32.8-.79-5.22 5.33-.8zM53 185.7c.55-5.92-3.16-9.21-6.9-10l.89-4.09c6.3 1 10.46 6.69 9.75 14.36-.7 7.5-6.5 13.92-17.94 12.85s-16-8.44-15.31-15.95c.71-7.66 5.85-12.49 12.22-12.31l.13 4.19c-3.82.06-8.08 2.6-8.63 8.52-.46 5 2.81 10.2 12 11.06S52.56 190.7 53 185.7zM42.94 163.32c-10.75-3.57-13.73-11.68-11.27-19.13s9.71-12.18 20.46-8.62 13.69 11.67 11.23 19.11-9.66 12.2-20.42 8.64zm7.78-23.47c-8-2.64-13.61-.18-15.49 5.52s1.15 11 9.13 13.66 13.56.17 15.45-5.52-1.11-11.01-9.09-13.66zM74.14 122.73c3.1-5.08 1.21-9.66-1.82-12l2.6-3.27c5.22 3.66 6.45 10.6 2.44 17.16s-12 9.65-21.75 3.66-10.67-14.61-6.74-21 10.74-8.65 16.38-5.69l-1.73 3.82c-3.45-1.63-8.38-1.22-11.48 3.86-2.62 4.29-2 10.4 5.87 15.18s13.61 2.55 16.23-1.72zM101.3 94l-18.21-2.4.36 6.63 7.29 6.93-3 3.12-23.29-22.14 3-3.13L79.5 94.49 77.9 72l3.71-3.9 1.3 19.19L105 90.17zM114.4 83.5L97.87 60.34l-8.31 5.93-2.14-3 20.11-14.36 2.15 3-8.31 5.93L117.9 81zM141.32 58.55l-12.72 6 .74 9-4.08 1.91L122.73 41l4.46-2L152 62.82l-4.27 2zm-13.08 2.06l10.26-4.82-11.61-11.43zM156.34 62.16l-9.26-30.81 4.13-1.24 9.26 30.81zM168.35 58.7l-5.2-31.7 4.25-.69 4.6 28.05 15.18-2.49.6 3.65zM190.43 45.37l4.16-.44c.21 2.82 2.8 7.33 8.8 7.44 4.71.09 7.48-2.48 7.53-5.4s-1.92-4.29-6.62-5.46l-4.85-1.21c-4.39-1.11-8-3.53-7.89-8.66.08-4.87 4.11-9.06 11.44-8.92 7.59.14 11.62 4.47 11.94 9.5l-4.17.44c-.4-3.45-3.32-6.12-7.83-6.2s-7 2.23-7 5.21c0 2.77 1.93 4 5.51 4.92l4.75 1.16c6.18 1.5 9.21 4 9.12 8.94-.11 5.8-5 9.55-12 9.43-7.8-.12-12.63-5.06-12.89-10.75zM235.8 49.24l1.33-5.24 5.12 1.3-1.33 5.23zM263 69.86l12.79-25.42-9.11-4.59 1.66-3.29 22.08 11.11-1.66 3.33-9.12-4.59-12.8 25.39zM297.6 82l-11.23-8.46-7.56 4.83-3.6-2.72 29.19-18.24 3.93 3-9.53 33.05-3.8-2.84zm-7.94-10.61l9 6.83 4.7-15.6zM311.54 103.23c3.91 4.47 8.85 4 12 1.85l2.35 3.47c-5.06 3.87-12 3-17.11-2.82s-5.62-14.3 3-21.85 17.14-5.8 22.1-.13 5 12.85.51 17.34l-3.12-2.79c2.59-2.81 3.68-7.64-.24-12.12-3.31-3.78-9.33-5-16.24 1.06s-6.56 12.2-3.25 15.99zM334.76 111.42c10-5.35 17.94-1.92 21.64 5s2.15 15.43-7.84 20.78-17.9 1.89-21.6-5-2.19-15.43 7.8-20.78zm11.67 21.8c7.42-4 9.51-9.74 6.67-15s-8.79-6.75-16.21-2.78-9.46 9.71-6.63 15 8.74 6.75 16.17 2.78zM345.26 146l1.62 3.86c-2.65 1-6.22 4.79-4.59 10.56 1.29 4.54 4.54 6.45 7.36 5.66s3.55-3.09 3.3-7.92l-.24-5c-.21-4.52 1.08-8.67 6-10.06 4.69-1.33 9.86 1.32 11.85 8.38 2.06 7.3-.92 12.4-5.65 14.16l-1.62-3.85c3.18-1.38 4.89-4.95 3.67-9.3s-4.15-6-7-5.21c-2.66.75-3.3 3-3.12 6.69l.26 4.88c.35 6.35-1.18 10-5.92 11.31-5.57 1.58-10.6-2.07-12.48-8.73-2.13-7.5 1.18-13.55 6.56-15.43zM354.63 190.51l5.38-.23.23 5.27-5.38.24zM344 216.5l31.56 6.05L373.4 234c-1.22 6.4-4.23 10.62-10.37 9.44a7.23 7.23 0 0 1-5.91-8.12c-1.09 4.9-4.05 7.26-8.58 6.39-6.39-1.22-8.2-6-6.89-12.8zm5.31 20.75c3.67.7 5.76-1.19 6.65-5.82l1.52-8-10.72-2.06-1.52 8c-.74 3.98-.18 7.06 4.1 7.88zm14.29 1.7c3.52.67 5.39-1.48 6.17-5.5l1.41-7.35-10.22-2-1.41 7.35c-.63 4.03.3 6.77 4.08 7.55zM337.71 245.45l29.67 12.43-4.72 11.26c-2.34 5.58-6.32 9.37-12.52 6.77-3.69-1.54-5.85-6-3.8-11.49-4.32 9.37-13 2.32-18.25 4l1.79-4.26c4.05-1.58 12.88 4.95 16.35-3.33l2.54-6.05-12.77-5.35zm14.13 26.28c4 1.68 6.32-1.41 7.65-4.58l2.82-6.72-10.31-4.3-2.82 6.71c-1.29 3.16-1.41 7.16 2.66 8.89zM323.84 296.78L340 308.12l-2.47 3.53-16.42-11.52c-6.47-4.54-8-10.76-3.26-17.52s11.11-7.43 17.58-2.89l16.42 11.52-2.47 3.53-16.17-11.35c-5.3-3.71-9.66-2.58-12.38 1.28s-2.28 8.36 3.01 12.08zM291 312.56l29.9 8.44-17.63-19.47 3.19-2.89 21.59 23.84-4 3.65-29.32-8.61 17.49 19.32-3.22 2.84-21.59-23.84zM271.62 329.15c-5.2 2.91-5.8 7.82-4.3 11.34l-3.88 1.58c-2.74-5.75-.41-12.41 6.3-16.16s15.15-2.54 20.76 7.48 2.12 18-4.46 21.66-13.6 2.26-17.04-3.05l3.37-2.48c2.21 3.11 6.72 5.18 11.91 2.27 4.39-2.45 6.81-8.1 2.33-16.11s-10.61-8.98-14.99-6.53zM233.91 340.74l4.15 13.95 14.79-4.4-4.15-14 4.13-1.23 9.17 30.86-4.13 1.23-4-13.37-14.79 4.4 4 13.37-4.18 1.24-9.17-30.79zM210.11 354.59l.25 5.38-5.27.25-.26-5.38z"/></svg>